<mxfile host="app.diagrams.net" modified="2023-09-25T09:47:38.751Z" agent="Mozilla/5.0 (Macintosh; Intel Mac OS X 10_15_7) AppleWebKit/537.36 (KHTML, like Gecko) Chrome/117.0.0.0 Safari/537.36" etag="KS_X11hN_F0-MR7DyXoX" version="21.6.2" type="github">
  <diagram id="prtHgNgQTEPvFCAcTncT" name="Page-1">
    <mxGraphModel dx="1434" dy="822" grid="1" gridSize="10" guides="1" tooltips="1" connect="1" arrows="1" fold="1" page="1" pageScale="1" pageWidth="827" pageHeight="1169" math="0" shadow="0">
      <root>
        <mxCell id="0" />
        <mxCell id="1" style="" parent="0" />
        <mxCell id="TLZNUcredXF_o8ZerSmt-51" value="" style="rounded=1;whiteSpace=wrap;html=1;" vertex="1" parent="1">
          <mxGeometry x="490" y="150" width="190" height="500" as="geometry" />
        </mxCell>
        <mxCell id="TLZNUcredXF_o8ZerSmt-36" value="" style="rounded=1;whiteSpace=wrap;html=1;" vertex="1" parent="1">
          <mxGeometry x="50" y="150" width="390" height="500" as="geometry" />
        </mxCell>
        <mxCell id="TLZNUcredXF_o8ZerSmt-11" value="asm-prometheus" style="ellipse;whiteSpace=wrap;html=1;" vertex="1" parent="1">
          <mxGeometry x="80" y="210" width="120" height="80" as="geometry" />
        </mxCell>
        <mxCell id="TLZNUcredXF_o8ZerSmt-12" value="node-exporter" style="ellipse;whiteSpace=wrap;html=1;" vertex="1" parent="1">
          <mxGeometry x="80" y="310" width="120" height="80" as="geometry" />
        </mxCell>
        <mxCell id="TLZNUcredXF_o8ZerSmt-13" value="db-exporter" style="ellipse;whiteSpace=wrap;html=1;" vertex="1" parent="1">
          <mxGeometry x="80" y="410" width="120" height="80" as="geometry" />
        </mxCell>
        <mxCell id="TLZNUcredXF_o8ZerSmt-14" value="mongo-exporter" style="ellipse;whiteSpace=wrap;html=1;" vertex="1" parent="1">
          <mxGeometry x="80" y="505" width="120" height="80" as="geometry" />
        </mxCell>
        <mxCell id="TLZNUcredXF_o8ZerSmt-22" style="rounded=0;orthogonalLoop=1;jettySize=auto;html=1;exitX=0;exitY=0.5;exitDx=0;exitDy=0;" edge="1" parent="1" source="TLZNUcredXF_o8ZerSmt-15" target="TLZNUcredXF_o8ZerSmt-11">
          <mxGeometry relative="1" as="geometry" />
        </mxCell>
        <mxCell id="TLZNUcredXF_o8ZerSmt-32" value="pull" style="edgeLabel;html=1;align=center;verticalAlign=middle;resizable=0;points=[];" vertex="1" connectable="0" parent="TLZNUcredXF_o8ZerSmt-22">
          <mxGeometry x="-0.0896" y="-4" relative="1" as="geometry">
            <mxPoint as="offset" />
          </mxGeometry>
        </mxCell>
        <mxCell id="TLZNUcredXF_o8ZerSmt-23" style="rounded=0;orthogonalLoop=1;jettySize=auto;html=1;exitX=0;exitY=0.5;exitDx=0;exitDy=0;" edge="1" parent="1" source="TLZNUcredXF_o8ZerSmt-15" target="TLZNUcredXF_o8ZerSmt-12">
          <mxGeometry relative="1" as="geometry" />
        </mxCell>
        <mxCell id="TLZNUcredXF_o8ZerSmt-33" value="pull" style="edgeLabel;html=1;align=center;verticalAlign=middle;resizable=0;points=[];" vertex="1" connectable="0" parent="TLZNUcredXF_o8ZerSmt-23">
          <mxGeometry x="0.1721" y="-2" relative="1" as="geometry">
            <mxPoint as="offset" />
          </mxGeometry>
        </mxCell>
        <mxCell id="TLZNUcredXF_o8ZerSmt-24" style="rounded=0;orthogonalLoop=1;jettySize=auto;html=1;exitX=0;exitY=0.5;exitDx=0;exitDy=0;" edge="1" parent="1" source="TLZNUcredXF_o8ZerSmt-15" target="TLZNUcredXF_o8ZerSmt-13">
          <mxGeometry relative="1" as="geometry" />
        </mxCell>
        <mxCell id="TLZNUcredXF_o8ZerSmt-34" value="pull" style="edgeLabel;html=1;align=center;verticalAlign=middle;resizable=0;points=[];" vertex="1" connectable="0" parent="TLZNUcredXF_o8ZerSmt-24">
          <mxGeometry x="0.0342" y="-1" relative="1" as="geometry">
            <mxPoint as="offset" />
          </mxGeometry>
        </mxCell>
        <mxCell id="TLZNUcredXF_o8ZerSmt-25" style="rounded=0;orthogonalLoop=1;jettySize=auto;html=1;exitX=0;exitY=0.5;exitDx=0;exitDy=0;" edge="1" parent="1" source="TLZNUcredXF_o8ZerSmt-15" target="TLZNUcredXF_o8ZerSmt-14">
          <mxGeometry relative="1" as="geometry" />
        </mxCell>
        <mxCell id="TLZNUcredXF_o8ZerSmt-35" value="pull" style="edgeLabel;html=1;align=center;verticalAlign=middle;resizable=0;points=[];" vertex="1" connectable="0" parent="TLZNUcredXF_o8ZerSmt-25">
          <mxGeometry x="-0.1971" relative="1" as="geometry">
            <mxPoint as="offset" />
          </mxGeometry>
        </mxCell>
        <mxCell id="TLZNUcredXF_o8ZerSmt-43" style="edgeStyle=orthogonalEdgeStyle;rounded=0;orthogonalLoop=1;jettySize=auto;html=1;exitX=0.5;exitY=0;exitDx=0;exitDy=0;" edge="1" parent="1" source="TLZNUcredXF_o8ZerSmt-15" target="TLZNUcredXF_o8ZerSmt-42">
          <mxGeometry relative="1" as="geometry" />
        </mxCell>
        <mxCell id="TLZNUcredXF_o8ZerSmt-15" value="pormetheus" style="ellipse;whiteSpace=wrap;html=1;" vertex="1" parent="1">
          <mxGeometry x="294" y="360" width="120" height="80" as="geometry" />
        </mxCell>
        <mxCell id="TLZNUcredXF_o8ZerSmt-45" value="" style="edgeStyle=orthogonalEdgeStyle;rounded=0;orthogonalLoop=1;jettySize=auto;html=1;" edge="1" parent="1" source="TLZNUcredXF_o8ZerSmt-28" target="TLZNUcredXF_o8ZerSmt-44">
          <mxGeometry relative="1" as="geometry" />
        </mxCell>
        <mxCell id="TLZNUcredXF_o8ZerSmt-28" value="logtail-agent" style="ellipse;whiteSpace=wrap;html=1;" vertex="1" parent="1">
          <mxGeometry x="520" y="230" width="120" height="80" as="geometry" />
        </mxCell>
        <mxCell id="TLZNUcredXF_o8ZerSmt-30" value="" style="shape=flexArrow;endArrow=classic;html=1;rounded=0;entryX=0;entryY=0.5;entryDx=0;entryDy=0;exitX=1;exitY=0.5;exitDx=0;exitDy=0;" edge="1" parent="1" source="TLZNUcredXF_o8ZerSmt-42" target="TLZNUcredXF_o8ZerSmt-28">
          <mxGeometry width="50" height="50" relative="1" as="geometry">
            <mxPoint x="390" y="460" as="sourcePoint" />
            <mxPoint x="480" y="450" as="targetPoint" />
          </mxGeometry>
        </mxCell>
        <mxCell id="TLZNUcredXF_o8ZerSmt-31" value="加密" style="edgeLabel;html=1;align=center;verticalAlign=middle;resizable=0;points=[];" vertex="1" connectable="0" parent="TLZNUcredXF_o8ZerSmt-30">
          <mxGeometry x="0.0441" y="-1" relative="1" as="geometry">
            <mxPoint as="offset" />
          </mxGeometry>
        </mxCell>
        <mxCell id="TLZNUcredXF_o8ZerSmt-37" value="物理机器" style="text;html=1;strokeColor=none;fillColor=none;align=center;verticalAlign=middle;whiteSpace=wrap;rounded=0;" vertex="1" parent="1">
          <mxGeometry x="210" y="170" width="60" height="30" as="geometry" />
        </mxCell>
        <mxCell id="TLZNUcredXF_o8ZerSmt-42" value="logtail-agent" style="ellipse;whiteSpace=wrap;html=1;" vertex="1" parent="1">
          <mxGeometry x="294" y="230" width="120" height="80" as="geometry" />
        </mxCell>
        <mxCell id="TLZNUcredXF_o8ZerSmt-48" value="" style="edgeStyle=orthogonalEdgeStyle;rounded=0;orthogonalLoop=1;jettySize=auto;html=1;" edge="1" parent="1" source="TLZNUcredXF_o8ZerSmt-44" target="TLZNUcredXF_o8ZerSmt-47">
          <mxGeometry relative="1" as="geometry" />
        </mxCell>
        <mxCell id="TLZNUcredXF_o8ZerSmt-44" value="sls" style="ellipse;whiteSpace=wrap;html=1;" vertex="1" parent="1">
          <mxGeometry x="520" y="360" width="120" height="80" as="geometry" />
        </mxCell>
        <mxCell id="TLZNUcredXF_o8ZerSmt-53" value="" style="edgeStyle=orthogonalEdgeStyle;rounded=0;orthogonalLoop=1;jettySize=auto;html=1;" edge="1" parent="1" source="TLZNUcredXF_o8ZerSmt-47" target="TLZNUcredXF_o8ZerSmt-52">
          <mxGeometry relative="1" as="geometry" />
        </mxCell>
        <mxCell id="TLZNUcredXF_o8ZerSmt-47" value="sls" style="ellipse;whiteSpace=wrap;html=1;" vertex="1" parent="1">
          <mxGeometry x="520" y="500" width="120" height="80" as="geometry" />
        </mxCell>
        <mxCell id="TLZNUcredXF_o8ZerSmt-52" value="webhook" style="whiteSpace=wrap;html=1;" vertex="1" parent="1">
          <mxGeometry x="750" y="510" width="120" height="60" as="geometry" />
        </mxCell>
        <mxCell id="TLZNUcredXF_o8ZerSmt-54" value="阿里云" style="text;html=1;strokeColor=none;fillColor=none;align=center;verticalAlign=middle;whiteSpace=wrap;rounded=0;" vertex="1" parent="1">
          <mxGeometry x="555" y="170" width="60" height="30" as="geometry" />
        </mxCell>
      </root>
    </mxGraphModel>
  </diagram>
</mxfile>
